REM DIRINDEX 1\2\6,1\2\7,1\2\8,1\3\9,1\3\10,1\3\11,1\4\12,1\4\13,1\4\14,1\5\15,1\5\16,1\5\17,1\5\18
REM DIRNAME folder01,folder02,folder03,folder04,folder05,folder06,folder07,folder08,folder09,folder10,folder11,folder12,folder13,folder14,folder15,folder16,folder17,folder18
TITLE ""
FILE "" MP3
  TRACK 01 AUDIO
    TITLE "16:cjc019_4691"
    INDEX 01 00:00:00
  TRACK 02 AUDIO
    TITLE "0:"
    INDEX 01 00:01:03
  TRACK 03 AUDIO
    TITLE "18:cjc019_4692"
    INDEX 01 00:01:54
  TRACK 04 AUDIO
    TITLE "0:"
    INDEX 01 00:05:59
  TRACK 05 AUDIO
    TITLE "17:cjc019_4693"
    INDEX 01 00:06:31
  TRACK 06 AUDIO
    TITLE "0:"
    INDEX 01 00:07:47
  TRACK 07 AUDIO
    TITLE "16:cjc019_4694"
    INDEX 01 00:09:28
  TRACK 08 AUDIO
    TITLE "0:"
    INDEX 01 00:10:35
  TRACK 09 AUDIO
    TITLE "18:cjc019_4695"
    INDEX 01 00:11:13
  TRACK 10 AUDIO
    TITLE "0:"
    INDEX 01 00:16:22
  TRACK 11 AUDIO
    TITLE "17:cjc019_4696"
    INDEX 01 00:16:65
  TRACK 12 AUDIO
    TITLE "0:"
    INDEX 01 00:17:74
  TRACK 13 AUDIO
    TITLE "16:cjc019_4697"
    INDEX 01 00:19:48
  TRACK 14 AUDIO
    TITLE "0:"
    INDEX 01 00:20:63
  TRACK 15 AUDIO
    TITLE "18:cjc019_4698"
    INDEX 01 00:21:43
  TRACK 16 AUDIO
    TITLE "0:"
    INDEX 01 00:24:49
  TRACK 17 AUDIO
    TITLE "17:cjc019_4699"
    INDEX 01 00:25:25
  TRACK 18 AUDIO
    TITLE "0:"
    INDEX 01 00:26:40
  TRACK 19 AUDIO
    TITLE "16:cjc019_4700"
    INDEX 01 00:28:17
  TRACK 20 AUDIO
    TITLE "0:"
    INDEX 01 00:29:62
  TRACK 21 AUDIO
    TITLE "18:cjc019_4701"
    INDEX 01 00:30:40
  TRACK 22 AUDIO
    TITLE "0:"
    INDEX 01 00:33:54
  TRACK 23 AUDIO
    TITLE "17:cjc019_4702"
    INDEX 01 00:34:26
  TRACK 24 AUDIO
    TITLE "0:"
    INDEX 01 00:35:68
  TRACK 25 AUDIO
    TITLE "16:cjc019_4703"
    INDEX 01 00:37:46
  TRACK 26 AUDIO
    TITLE "0:"
    INDEX 01 00:38:61
  TRACK 27 AUDIO
    TITLE "18:cjc019_4704"
    INDEX 01 00:39:41
  TRACK 28 AUDIO
    TITLE "0:"
    INDEX 01 00:41:30
  TRACK 29 AUDIO
    TITLE "17:cjc019_4705"
    INDEX 01 00:42:08
  TRACK 30 AUDIO
    TITLE "0:"
    INDEX 01 00:43:23
  TRACK 31 AUDIO
    TITLE "16:cjc019_4706"
    INDEX 01 00:45:06
  TRACK 32 AUDIO
    TITLE "0:"
    INDEX 01 00:46:23
  TRACK 33 AUDIO
    TITLE "18:cjc019_4707"
    INDEX 01 00:47:01
  TRACK 34 AUDIO
    TITLE "0:"
    INDEX 01 00:50:01
  TRACK 35 AUDIO
    TITLE "17:cjc019_4708"
    INDEX 01 00:50:50
  TRACK 36 AUDIO
    TITLE "0:"
    INDEX 01 00:51:65
  TRACK 37 AUDIO
    TITLE "16:cjc019_4709"
    INDEX 01 00:53:41
  TRACK 38 AUDIO
    TITLE "0:"
    INDEX 01 00:54:48
  TRACK 39 AUDIO
    TITLE "18:cjc019_4710"
    INDEX 01 00:55:26
  TRACK 40 AUDIO
    TITLE "0:"
    INDEX 01 00:58:54
  TRACK 41 AUDIO
    TITLE "17:cjc019_4711"
    INDEX 01 00:59:30
  TRACK 42 AUDIO
    TITLE "0:"
    INDEX 01 01:00:35
  TRACK 43 AUDIO
    TITLE "16:cjc019_4712"
    INDEX 01 01:02:12
  TRACK 44 AUDIO
    TITLE "0:"
    INDEX 01 01:03:27
  TRACK 45 AUDIO
    TITLE "18:cjc019_4713"
    INDEX 01 01:04:09
  TRACK 46 AUDIO
    TITLE "0:"
    INDEX 01 01:06:04
  TRACK 47 AUDIO
    TITLE "17:cjc019_4714"
    INDEX 01 01:06:55
  TRACK 48 AUDIO
    TITLE "0:"
    INDEX 01 01:07:68
  TRACK 49 AUDIO
    TITLE "16:cjc019_4715"
    INDEX 01 01:09:46
  TRACK 50 AUDIO
    TITLE "0:"
    INDEX 01 01:10:69
  TRACK 51 AUDIO
    TITLE "18:cjc019_4716"
    INDEX 01 01:11:49
  TRACK 52 AUDIO
    TITLE "0:"
    INDEX 01 01:15:39
  TRACK 53 AUDIO
    TITLE "17:cjc019_4717"
    INDEX 01 01:16:12
  TRACK 54 AUDIO
    TITLE "0:"
    INDEX 01 01:17:37
  TRACK 55 AUDIO
    TITLE "16:cjc019_4718"
    INDEX 01 01:19:15
  TRACK 56 AUDIO
    TITLE "0:"
    INDEX 01 01:20:38
  TRACK 57 AUDIO
    TITLE "18:cjc019_4719"
    INDEX 01 01:21:20
  TRACK 58 AUDIO
    TITLE "0:"
    INDEX 01 01:25:33
  TRACK 59 AUDIO
    TITLE "17:cjc019_4720"
    INDEX 01 01:26:09
  TRACK 60 AUDIO
    TITLE "0:"
    INDEX 01 01:27:38
  TRACK 61 AUDIO
    TITLE "16:cjc019_4721"
    INDEX 01 01:29:15
  TRACK 62 AUDIO
    TITLE "0:"
    INDEX 01 01:30:40
  TRACK 63 AUDIO
    TITLE "18:cjc019_4722"
    INDEX 01 01:31:22
  TRACK 64 AUDIO
    TITLE "0:"
    INDEX 01 01:32:72
  TRACK 65 AUDIO
    TITLE "17:cjc019_4723"
    INDEX 01 01:33:50
  TRACK 66 AUDIO
    TITLE "0:"
    INDEX 01 01:34:71
  TRACK 67 AUDIO
    TITLE "16:cjc019_4724"
    INDEX 01 01:36:52
  TRACK 68 AUDIO
    TITLE "0:"
    INDEX 01 01:37:68
  TRACK 69 AUDIO
    TITLE "18:cjc019_4725"
    INDEX 01 01:38:45
  TRACK 70 AUDIO
    TITLE "0:"
    INDEX 01 01:42:08
  TRACK 71 AUDIO
    TITLE "17:cjc019_4726"
    INDEX 01 01:42:59
  TRACK 72 AUDIO
    TITLE "0:"
    INDEX 01 01:43:74
  TRACK 73 AUDIO
    TITLE "16:cjc019_4727"
    INDEX 01 01:45:53
  TRACK 74 AUDIO
    TITLE "0:"
    INDEX 01 01:46:70
  TRACK 75 AUDIO
    TITLE "18:cjc019_4728"
    INDEX 01 01:47:52
  TRACK 76 AUDIO
    TITLE "0:"
    INDEX 01 01:52:38
  TRACK 77 AUDIO
    TITLE "17:cjc019_4729"
    INDEX 01 01:53:14
  TRACK 78 AUDIO
    TITLE "0:"
    INDEX 01 01:54:29
  TRACK 79 AUDIO
    TITLE "16:cjc019_4730"
    INDEX 01 01:56:10
  TRACK 80 AUDIO
    TITLE "0:"
    INDEX 01 01:57:25
  TRACK 81 AUDIO
    TITLE "18:cjc019_4731"
    INDEX 01 01:58:05
  TRACK 82 AUDIO
    TITLE "0:"
    INDEX 01 02:03:22
  TRACK 83 AUDIO
    TITLE "17:cjc019_4732"
    INDEX 01 02:03:71
  TRACK 84 AUDIO
    TITLE "0:"
    INDEX 01 02:05:13
  TRACK 85 AUDIO
    TITLE "16:cjc019_4733"
    INDEX 01 02:06:71
  TRACK 86 AUDIO
    TITLE "0:"
    INDEX 01 02:08:00
  TRACK 87 AUDIO
    TITLE "18:cjc019_4734"
    INDEX 01 02:08:58
  TRACK 88 AUDIO
    TITLE "0:"
    INDEX 01 02:12:21
  TRACK 89 AUDIO
    TITLE "17:cjc019_4735"
    INDEX 01 02:12:70
  TRACK 90 AUDIO
    TITLE "0:"
    INDEX 01 02:14:00
  TRACK 91 AUDIO
    TITLE "16:cjc019_4736"
    INDEX 01 02:15:52
  TRACK 92 AUDIO
    TITLE "0:"
    INDEX 01 02:16:62
  TRACK 93 AUDIO
    TITLE "18:cjc019_4737"
    INDEX 01 02:17:40
  TRACK 94 AUDIO
    TITLE "0:"
    INDEX 01 02:20:36
  TRACK 95 AUDIO
    TITLE "17:cjc019_4738"
    INDEX 01 02:21:10
  TRACK 96 AUDIO
    TITLE "0:"
    INDEX 01 02:22:23
  TRACK 97 AUDIO
    TITLE "16:cjc019_4739"
    INDEX 01 02:24:02
  TRACK 98 AUDIO
    TITLE "0:"
    INDEX 01 02:25:14
  TRACK 99 AUDIO
    TITLE "18:cjc019_4740"
    INDEX 01 02:25:68
  TRACK 100 AUDIO
    TITLE "0:"
    INDEX 01 02:27:48
  TRACK 101 AUDIO
    TITLE "17:cjc019_4741"
    INDEX 01 02:28:28
  TRACK 102 AUDIO
    TITLE "0:"
    INDEX 01 02:29:43
  TRACK 103 AUDIO
    TITLE "16:cjc019_4742"
    INDEX 01 02:31:24
  TRACK 104 AUDIO
    TITLE "0:"
    INDEX 01 02:32:37
  TRACK 105 AUDIO
    TITLE "18:cjc019_4743"
    INDEX 01 02:33:09
  TRACK 106 AUDIO
    TITLE "0:"
    INDEX 01 02:36:08
  TRACK 107 AUDIO
    TITLE "17:cjc019_4744"
    INDEX 01 02:36:59
  TRACK 108 AUDIO
    TITLE "0:"
    INDEX 01 02:37:70
